<?xml version="1.0" encoding="UTF-8"?>
<svg id="Layer_2" data-name="Layer 2" xmlns="http://www.w3.org/2000/svg" viewBox="0 0 248.14 369.48">
  <defs>
    <style>
      .cls-1 {
        fill: #009e66;
      }
    </style>
  </defs>
  <g id="Layer_1-2" data-name="Layer 1">
    <path class="cls-1" d="M.09,258.96c0-11,.14-22-.09-32.99-.06-3.09,1.03-4.78,3.54-6.27,17.92-10.64,35.79-21.36,53.67-32.07,4.56-2.73,4.53-3.14-.07-5.88-17.9-10.68-35.73-21.45-53.72-31.98-2.58-1.51-3.38-3.08-3.37-5.88,.09-22.16,.1-44.32-.02-66.48-.02-2.86,.92-4.46,3.34-5.9C42.78,48.07,82.16,24.57,121.46,.95c2.04-1.23,3.04-1.3,5.12-.04,31.89,19.29,63.86,38.43,95.84,57.57,7.33,4.39,14.68,8.76,22.15,12.92,2.66,1.48,3.55,3.28,3.54,6.28-.12,21.99-.12,43.99,0,65.98,.02,3.03-.92,4.66-3.63,6.25-17.54,10.31-34.91,20.9-52.37,31.36-5.92,3.55-5.99,3.56-.05,7.12,17.47,10.46,34.95,20.9,52.48,31.27,2.5,1.48,3.61,3.14,3.58,6.25-.17,21.99-.14,43.99-.03,65.98,.01,3.07-.75,4.87-3.62,6.57-38.98,23.16-77.86,46.49-116.73,69.83-2.6,1.56-4.75,1.57-7.38-.02-28.81-17.39-57.67-34.7-86.53-52.01-10.28-6.17-20.51-12.44-30.95-18.31-2.37-1.33-2.82-2.73-2.81-5.02,.06-11.33,.03-22.66,.03-33.99h-.02Zm62.01-73.97c0,24.61,.04,48.22-.06,71.82,0,2.14,1.28,2.99,2.61,3.79,18.58,11.13,37.24,22.12,55.75,33.36,3.71,2.25,3.67,.52,3.66-2.35-.04-22.12-.05-44.25,0-66.37,0-2.16-.44-3.62-2.46-4.81-19.56-11.57-39.06-23.24-59.5-35.43Zm62.42-110.77c-.25,1.31-.48,1.94-.48,2.57,0,22.48,.11,44.96-.04,67.44-.02,3.36,1.8,4.62,4.14,6.01,18.04,10.77,36.06,21.55,54.05,32.39,3.03,1.82,3.94,1.11,3.93-2.32-.09-22.15-.1-44.29-.05-66.44,0-2.48-.9-3.63-3.1-4.93-12.69-7.47-25.17-15.33-37.8-22.91-6.69-4.02-13.55-7.76-20.66-11.81Z"/>
  </g>
</svg>